<svg xmlns="http://www.w3.org/2000/svg" viewBox="0 0 1000 1000"><path fill="#253857" d="M732.5 408.6H301.8l-1.1-131.5c0-110.7 89.4-200.7 199.3-200.7s199.3 90 199.3 200.7v65c0 18.3 14.8 33.2 33.2 33.2 18.4 0 33.2-14.9 33.2-33.2v-65C765.8 129.8 646.5 10 500 10S234.2 129.8 234.2 277.4l1.1 135.6c-57.7 14.4-100.8 66.3-100.8 128.5v315.6c0 73.3 59.6 132.9 132.9 132.9h465.1c73.3 0 132.9-59.6 132.9-132.9V541.5c0-73.3-59.6-132.9-132.9-132.9M799 857.1c0 36.6-29.8 66.4-66.4 66.4H267.5c-36.6 0-66.4-29.8-66.4-66.4V541.5c0-36.6 29.8-66.4 66.4-66.4h465.1c36.6 0 66.4 29.8 66.4 66.4v315.6zM500 574.7c-18.3 0-33.2 14.9-33.2 33.2v132.9c0 18.4 14.9 33.2 33.2 33.2 18.3 0 33.2-14.9 33.2-33.2V608c0-18.4-14.9-33.3-33.2-33.3"/></svg>