<?xml version="1.0" encoding="utf-8"?>
<!DOCTYPE svg PUBLIC "-//W3C//DTD SVG 1.1//EN" "http://www.w3.org/Graphics/SVG/1.1/DTD/svg11.dtd">
<svg version="1.1" xmlns="http://www.w3.org/2000/svg" xmlns:xlink="http://www.w3.org/1999/xlink" x="0px" y="0px" viewBox="0 0 1000 1000" enable-background="new 0 0 1000 1000" xml:space="preserve">
<g>
  <path fill="#253857" d="M732.5,408.6H301.8l-1.1-131.5c0-110.7,89.4-200.7,199.3-200.7c109.9,0,199.3,90,199.3,200.7v65c0,18.3,14.8,33.2,33.2,33.2c18.4,0,33.2-14.9,33.2-33.2v-65C765.8,129.8,646.5,10,500,10c-146.5,0-265.8,119.8-265.8,267.4l1.1,135.6c-57.7,14.4-100.8,66.3-100.8,128.5v315.6c0,73.3,59.6,132.9,132.9,132.9h465.1c73.3,0,132.9-59.6,132.9-132.9V541.5C865.4,468.2,805.8,408.6,732.5,408.6 M799,857.1c0,36.6-29.8,66.4-66.4,66.4H267.5c-36.6,0-66.4-29.8-66.4-66.4V541.5c0-36.6,29.8-66.4,66.4-66.4h1.4h0.3h463.4c36.6,0,66.4,29.8,66.4,66.4L799,857.1L799,857.1z M500,574.7c-18.3,0-33.2,14.9-33.2,33.2v132.9c0,18.4,14.9,33.2,33.2,33.2c18.3,0,33.2-14.9,33.2-33.2V608C533.2,589.6,518.3,574.7,500,574.7"/></g>
</svg>