<svg width="32" height="32" viewBox="0 0 32 32" fill="none" xmlns="http://www.w3.org/2000/svg">
<circle cx="24" cy="24" r="7.5" stroke="#BC8344"/>
<path d="M27 21L24 24M21 27L24 24M24 24L21 21M24 24L27 27" stroke="#BC8344"/>
<path fill-rule="evenodd" clip-rule="evenodd" d="M15.223 26H3C1.34315 26 0 24.6569 0 23V3C0 1.34315 1.34315 0 3 0H17.6202C18.496 0 19.328 0.382688 19.898 1.04763L24.2778 6.1574C24.7438 6.70113 25 7.39364 25 8.10977V15.0549C24.6717 15.0186 24.338 15 24 15C23.2616 15 22.544 15.0889 21.8573 15.2566C21.5623 14.5202 20.8419 14 20 14H5C3.89543 14 3 14.8954 3 16V21C3 22.1046 3.89543 23 5 23H15.0549C15.0186 23.3283 15 23.662 15 24C15 24.6874 15.0771 25.3568 15.223 26ZM15.5121 21H6C5.44772 21 5 20.5523 5 20C5 19.4477 5.44772 19 6 19H16.5155C16.1025 19.617 15.7638 20.2879 15.5121 21ZM4 2C4 1.44772 4.44772 1 5 1H17C17.5523 1 18 1.44772 18 2V8C18 8.55229 17.5523 9 17 9H5C4.44772 9 4 8.55229 4 8V2ZM15 3C14.4477 3 14 3.44772 14 4V6C14 6.55228 14.4477 7 15 7C15.5523 7 16 6.55228 16 6V4C16 3.44772 15.5523 3 15 3ZM5 17C5 16.4477 5.44772 16 6 16H12C12.5523 16 13 16.4477 13 17C13 17.5523 12.5523 18 12 18H6C5.44772 18 5 17.5523 5 17Z" fill="#BC8344"/>
</svg>
